# xmcd
#
# Track frame offsets: 
#        150
#        27205
#        47995
#        65282
#        90645
#        121668
#        142627
#        173493
#        195484
#        218374
#        241812
#
# Disc length: 3540 seconds
#
# Revision: 2
# Processed by: cddbd v1.5.2PL0 Copyright (c) Steve Scherf et al.
# Submitted via: ExactAudioCopy v1.0b3
#
DISCID=7e0dd20b
DTITLE=Various Artist - Gio Doi Cho Nhau
DYEAR=2000
DGENRE=Blues
TTITLE0=Vu Khanh - Dem nho trang Sai Gon
TTITLE1=Diem Lien - Trong tay Thanh nu co doi ta
TTITLE2=La Suong Suong, Hoang Nam - On em
TTITLE3=Y Lan - Tren ngon tinh sau
TTITLE4=Dinh Ngoc - Hien chuong yeu
TTITLE5=Ngoc Hue - Thuong Me da lung doi
TTITLE6=Anh Dung - Khi cuoc tinh da chet
TTITLE7=La Suong Suong - Que huong la nguoi do
TTITLE8=Hoang Nam - K khuc cua Le
TTITLE9=Y Lan - Em ngu trong mot mua dong
TTITLE10=Vu Khanh - Khuc thuy du
EXTD=ID3G:   0
EXTT0=
EXTT1=
EXTT2=
EXTT3=
EXTT4=
EXTT5=
EXTT6=
EXTT7=
EXTT8=
EXTT9=
EXTT10=
PLAYORDER=
